<?xml version="1.0" ?>
<svg baseProfile="tiny" id="Layer_1" version="1.2" viewBox="0 0 24 24" xml:space="preserve" xmlns="http://www.w3.org/2000/svg" xmlns:xlink="http://www.w3.org/1999/xlink">
    <path fill="#BBB" id="svg_1" d="m7.623355,13.963235c1.733064,0 3.301732,-0.750442 4.437448,-1.963207c1.134459,-1.211427 1.837224,-2.886519 1.837224,-4.73716s-0.702765,-3.525734 -1.837224,-4.73716c-1.135715,-1.212767 -2.704384,-1.963208 -4.437448,-1.963208s-3.301732,0.750441 -4.437447,1.963208c-1.134461,1.211426 -1.837224,2.886518 -1.837224,4.73716s0.702763,3.525733 1.837224,4.73716c1.135715,1.212766 2.704383,1.963207 4.437447,1.963207z"/>
    <path fill="#BBB" id="svg_2" d="m7.623355,23.34375c4.414859,0 7.529606,-1.340073 7.529606,-2.680145c0,-2.680149 -2.954116,-5.360296 -7.529606,-5.360296c-4.706003,0 -7.529605,2.680147 -7.529605,5.360296c0,1.340073 2.823602,2.680145 7.529605,2.680145z"/>
    <path fill="#BBB" id="svg_3" d="m22.682566,11.283089l-2.509869,0l0,-2.680148c0,-0.741061 -0.560955,-1.340073 -1.254934,-1.340073s-1.254934,0.599012 -1.254934,1.340073l0,2.680148l-2.509868,0c-0.693979,0 -1.254934,0.599012 -1.254934,1.340073s0.560955,1.340074 1.254934,1.340074l2.509868,0l0,2.680148c0,0.74106 0.560957,1.340073 1.254934,1.340073s1.254934,-0.599012 1.254934,-1.340073l0,-2.680148l2.509869,0c0.693979,0 1.254934,-0.599012 1.254934,-1.340074s-0.560955,-1.340073 -1.254934,-1.340073z"/>
    <rect stroke="#FFF" fill="#FFF" stroke-width="0" x="13.898026" y="4.58272" width="10.039474" height="6.700368" id="svg_22"/>
    <rect stroke="#FFF" fill="#FFF" stroke-width="0" x="15.15296" y="13.963235" width="6.274671" height="6.700368" id="svg_22"/>
</svg>