<?xml version="1.0" ?>
<svg baseProfile="tiny" id="Layer_1" version="1.2" viewBox="0 0 24 24" xml:space="preserve" xmlns="http://www.w3.org/2000/svg" xmlns:xlink="http://www.w3.org/1999/xlink">
   <path fill="#BBB" id="svg_1" d="m7.590461,13.69079c1.739877,0 3.314715,-0.705527 4.454895,-1.845708c1.13892,-1.138919 1.844447,-2.713758 1.844447,-4.453634s-0.705527,-3.314714 -1.844447,-4.453635c-1.14018,-1.140181 -2.715017,-1.845707 -4.454895,-1.845707s-3.314714,0.705526 -4.454895,1.845707c-1.138921,1.138921 -1.844447,2.713756 -1.844447,4.453635s0.705526,3.314715 1.844447,4.453634c1.14018,1.140181 2.715016,1.845708 4.454895,1.845708z"/>
   <path fill="#BBB" id="svg_2" d="m7.590461,22.509867c4.432216,0 7.55921,-1.259869 7.55921,-2.519737c0,-2.519735 -2.965731,-5.039472 -7.55921,-5.039472c-4.724506,0 -7.55921,2.519736 -7.55921,5.039472c0,1.259869 2.834704,2.519737 7.55921,2.519737z"/>
   <path fill="#BBB" id="svg_3" d="m22.708879,11.171052l-2.519735,0l0,-2.519735c0,-0.696708 -0.563162,-1.259869 -1.259869,-1.259869s-1.259869,0.56316 -1.259869,1.259869l0,2.519735l-2.519735,0c-0.696709,0 -1.259869,0.563161 -1.259869,1.259869s0.56316,1.25987 1.259869,1.25987l2.519735,0l0,2.519735c0,0.696709 0.563162,1.259869 1.259869,1.259869s1.259869,-0.56316 1.259869,-1.259869l0,-2.519735l2.519735,0c0.696709,0 1.259871,-0.563161 1.259871,-1.25987s-0.563162,-1.259869 -1.259871,-1.259869z"/>
</svg>